<?xml version="1.0" encoding="utf-8"?>
<!-- Generator: Adobe Illustrator 25.3.1, SVG Export Plug-In . SVG Version: 6.00 Build 0)  -->
<svg version="1.1" id="Layer_1" xmlns="http://www.w3.org/2000/svg" xmlns:xlink="http://www.w3.org/1999/xlink" x="0px" y="0px"
	 viewBox="0 0 245.3 30" style="enable-background:new 0 0 245.3 30;" xml:space="preserve">
<style type="text/css">
	.st0{fill:#273F33;}
</style>
<path class="st0" d="M241.1,19.6c0-0.7,0.4-0.9,0.8-0.9c0.7,0,0.9,0.6,0.9,1.4v0.6l2.3-0.1l-0.1-0.7c-0.1-2.6-1.5-3.4-3.3-3.4
	c-2.3,0-3.5,1.5-3.5,3.4c0,1.9,0.8,2.9,2.2,4.2c0.9,0.8,1.9,1.6,1.9,2.5c0,0.6-0.3,0.9-0.8,0.9c-0.6,0-1.1-0.4-1.2-1.7l-0.1-0.6
	l-2.3,0.1l0.1,1c0.1,2.7,1.8,3.5,3.6,3.5c2.4,0,3.5-1.4,3.5-3.6c0-1.9-1.1-2.9-2.3-4C241.6,20.9,241.1,20.5,241.1,19.6 M233.4,18.8
	h0.4c0.4,0,0.9,0.3,0.9,1.9c0,1.7-0.6,1.9-1.1,1.9h-0.3L233.4,18.8L233.4,18.8z M237.7,29.6l-1.5-5.9c0.9-0.8,1.5-2.1,1.4-3.3
	c0-2.4-1.3-3.7-3.4-3.7h-3.8v13h2.9v-5.2h0.2l1.2,5.2L237.7,29.6z M225.3,27.5c-0.7,0-1-0.7-1-4.5s0.3-4.4,1-4.4s1,0.7,1,4.4
	S225.9,27.5,225.3,27.5 M225.3,29.8c2.7,0,4-1.8,4-6.7s-1.3-6.7-4-6.7c-2.7,0-4,1.8-4,6.7S222.6,29.8,225.3,29.8 M216.2,19.6
	c0-0.7,0.4-0.9,0.8-0.9c0.7,0,0.9,0.6,1,1.4v0.6l2.3-0.1l-0.1-0.7c-0.1-2.6-1.5-3.4-3.3-3.4c-2.3,0-3.5,1.5-3.5,3.4
	c0,1.9,0.8,2.9,2.2,4.2c0.9,0.8,1.9,1.6,1.9,2.5c0,0.6-0.3,0.9-0.8,0.9c-0.6,0-1.1-0.4-1.2-1.7l-0.1-0.6l-2.3,0.1l0.1,1
	c0.1,2.7,1.8,3.5,3.6,3.5c2.4,0,3.5-1.4,3.5-3.6c0-1.9-1.1-2.9-2.3-4C216.7,20.8,216.2,20.5,216.2,19.6 M209.4,29.6h2.9v-13h-2.9
	V29.6z M203.3,16.6h-2.9l1.9,13h4l2.2-13h-2.8l-1.2,10.8L203.3,16.6z M196.9,23.1c0,3.5-0.4,4.3-1.3,4.3h-0.4v-8.5h0.4
	C196.5,18.9,196.9,19.6,196.9,23.1 M192.3,29.6h3.7c2.6,0,4-2.1,4-6.5s-1.3-6.5-4-6.5h-3.7V29.6z M186.6,25l0.7-6.2L188,25H186.6z
	 M188.5,29.6h3l-1.9-13h-4.1l-2.1,13h2.8l0.3-2.9h1.7L188.5,29.6z"/>
<path class="st0" d="M228.4,13.4v-2.3h-2V0.4h-2.9v13H228.4z M217.8,8.8l0.7-6.2l0.7,6.2H217.8z M219.6,13.4h2.9l-1.9-13h-4.1
	l-2.1,13h2.8l0.3-2.9h1.7L219.6,13.4z M209.7,11.1V7.4h0.3c0.7,0,1.2,0.3,1.2,1.8c0,1.6-0.4,1.9-1.2,1.9H209.7z M211.1,4
	c0,1.2-0.4,1.7-1.1,1.7h-0.4v-3h0.3C210.7,2.7,211.1,2.9,211.1,4 M206.7,13.4h3.5c2.6,0,4-1.3,4-4.1c0-1.3-0.4-2.5-1.8-3.1
	c1.1-0.4,1.7-1.5,1.7-2.7c0-2.1-1.2-3.2-3.8-3.2h-3.5L206.7,13.4z M201.7,11.4c-0.7,0-1-0.7-1-4.5s0.3-4.4,1-4.4s1,0.7,1,4.4
	S202.3,11.4,201.7,11.4 M201.7,13.6c2.7,0,4-1.8,4-6.7s-1.3-6.7-4-6.7c-2.7,0-4,1.8-4,6.7S199,13.6,201.7,13.6 M197.3,13.4v-2.3h-2
	V0.4h-2.9v13H197.3z M190.9,4.4l-0.1-0.7c-0.1-2.2-1.3-3.4-3.1-3.4c-2.7,0-4.2,2.1-4.2,6.7c0,4.7,1.5,6.7,3.7,6.7
	c0.8,0.1,1.7-0.4,2.1-1.1l0.5,0.9h1.1V6.4h-3.3V8h0.9v2.5c0,0.7-0.3,0.8-0.8,0.8c-0.7,0-1.1-0.8-1.1-4.5s0.4-4.4,1.1-4.4
	c0.5,0,0.8,0.4,0.9,1.5v0.5L190.9,4.4z"/>
<path class="st0" d="M166.1,29.6h6.6V5.5h3.9V0.4h-14.4v5.1h3.9V29.6z M160.7,29.6v-5.1h-4.8v-8.4h4.1v-3.9h-4.1V5.5h4.9V0.4h-11.6
	v29.2H160.7z M146.8,29.6v-5.1h-4.9v-8.4h4.1v-3.9h-4.1V5.5h4.9V0.4h-11.5v29.2H146.8z M123.5,5.3h0.8c1.1,0,2.1,0.6,2.1,4.3
	s-1.2,4.3-2.3,4.3h-0.6L123.5,5.3z M133.2,29.6l-3.3-13.3c2-1.5,3.2-4.2,3.2-7.5c0-5.5-3-8.4-7.6-8.4h-8.6v29.2h6.6V17.8h0.6
	l2.6,11.8H133.2z M104.8,29.6h6.6V5.5h3.9V0.4h-14.4v5.1h3.9V29.6z M91,7.2c0-1.5,0.9-2.1,1.8-2.1c1.6,0,2.1,1.4,2.2,3.1l0.1,1.4
	l5.1-0.3l-0.1-1.6c-0.3-6-3.3-7.7-7.4-7.7C87.5,0,85,3.4,85,7.7c0,4.2,1.8,6.6,5,9.4c2.1,1.9,4.3,3.7,4.3,5.6c0,1.4-0.6,2.2-1.8,2.2
	c-1.4,0-2.4-0.9-2.6-3.7l-0.1-1.4L84.5,20l0.1,2.3c0.3,6.1,4.1,7.7,8,7.7c5.5,0,7.8-3.3,7.8-8.1c0-4.3-2.5-6.6-5.1-9
	C92.3,10,91,9.2,91,7.2 M76,29.6v-5.1h-4.8v-8.4h4.1v-3.9h-4.1V5.5h4.9V0.4H64.6v29.2H76z M51.9,29.6h6.6V5.5h3.9V0.4H48v5.1h3.9
	V29.6z M37.6,19.3l1.6-13.9l1.4,13.9H37.6z M41.7,29.6h6.7L44.1,0.4h-9.2l-4.8,29.2h6.3l0.7-6.5H41L41.7,29.6z M20.2,29.6h6.6V5.5
	h3.9V0.4H16.3v5.1h3.9V29.6z M6.3,7.2c0-1.5,0.9-2.1,1.8-2.1c1.6,0,2.2,1.4,2.2,3.1l0.1,1.4l5.1-0.3l-0.1-1.6C15.2,1.7,12.1,0,8.1,0
	C2.9,0,0.4,3.4,0.4,7.7c0,4.2,1.8,6.6,5,9.4c2.2,1.9,4.3,3.7,4.3,5.6c0,1.4-0.6,2.2-1.8,2.2c-1.4,0-2.4-0.9-2.6-3.7l-0.1-1.4L0,20
	l0.1,2.3c0.3,6.1,4.1,7.7,8,7.7c5.5,0,7.8-3.3,7.8-8.1c0-4.3-2.5-6.6-5.1-9C7.6,10,6.4,9.2,6.3,7.2"/>
</svg>
